PathFileType	4	(X/Y/Z)	s01c0402.trc
DataRate	CameraRate	NumFrames	NumMarkers	Units	OrigDataRate	OrigDataStartFrame	OrigNumFrames
200	200	6	48	mm	200	1750	2000
Frame#	Time	racr			lacr			c7			jug			rlel			rdr			llel			ldr			s2			lic			ric			lasi			rasi			rpsi			lpsi			rgt			lgt			rth1			rth2			rth3			rth4			rlfc			rsh1			rsh2			rsh3			rsh4			rlmal			rmmal			rcal			rtoe			rmt5			lth1			lth2			lth4			lth3			llfc			lsh1			lsh2			lsh3			lsh4			llmal			lmmal			lcal			ltoe			lmt5			SBIKE			LBIKE			RBIKE			
		X1	Y1	Z1	X2	Y2	Z2	X3	Y3	Z3	X4	Y4	Z4	X5	Y5	Z5	X6	Y6	Z6	X7	Y7	Z7	X8	Y8	Z8	X9	Y9	Z9	X10	Y10	Z10	X11	Y11	Z11	X12	Y12	Z12	X13	Y13	Z13	X14	Y14	Z14	X15	Y15	Z15	X16	Y16	Z16	X17	Y17	Z17	X18	Y18	Z18	X19	Y19	Z19	X20	Y20	Z20	X21	Y21	Z21	X22	Y22	Z22	X23	Y23	Z23	X24	Y24	Z24	X25	Y25	Z25	X26	Y26	Z26	X27	Y27	Z27	X28	Y28	Z28	X29	Y29	Z29	X30	Y30	Z30	X31	Y31	Z31	X32	Y32	Z32	X33	Y33	Z33	X34	Y34	Z34	X35	Y35	Z35	X36	Y36	Z36	X37	Y37	Z37	X38	Y38	Z38	X39	Y39	Z39	X40	Y40	Z40	X41	Y41	Z41	X42	Y42	Z42	X43	Y43	Z43	X44	Y44	Z44	X45	Y45	Z45	X46	Y46	Z46	X47	Y47	Z47	X48	Y48	Z48	
1750	8.7500	669.109821	1294.148965	-130.617678	687.338681	1264.799834	-507.356526	689.958935	1375.774917	-319.358430	655.862504	1215.317625	-309.771758	536.721885	1062.019150	-5.107732	693.850669	886.670823	-63.758939	528.845515	1026.873755	-593.530703	669.795499	869.712640	-468.522629	141.405372	1220.968692	-302.188272	299.359525	1195.063736	-481.788842	308.618355	1208.880572	-159.786321	289.287958	1136.340800	-460.552854	325.318197	1159.008849	-189.164823	180.189785	1255.479374	-256.786376	172.264738	1250.359092	-362.785733	252.115679	1118.438271	-112.026598	194.692797	1059.594605	-489.965365	354.180867	1037.967270	-107.499047	428.526091	1000.901331	-111.206787	504.026460	953.850989	-124.824144	453.243054	1046.442460	-134.739480	568.315297	869.732083	-148.700770	473.115119	811.557136	-109.877953	406.323940	759.680252	-105.916909	330.618204	712.276586	-108.614276	432.678819	718.875847	-141.567137	222.071738	647.997678	-115.634557	257.573651	626.729708	-196.502306	166.597130	655.386756	-168.653374	338.917759	445.848736	-146.314829	246.881036	505.180952	-79.599900	205.547611	929.942205	-490.436066	247.843585	847.710944	-485.909063	292.137472	870.005427	-490.698146	271.408307	771.127797	-465.084936	302.914191	654.742520	-448.215267	235.480238	562.058210	-472.674933	215.247964	478.108598	-462.882388	193.212540	396.693185	-445.040151	271.858597	467.654421	-440.272090	161.253418	276.130688	-422.603170	0.000000	0.000000	-0.000000	111.395569	263.704274	-379.651717	357.833621	136.156314	-380.447716	253.921500	155.824310	-448.450568	-230.085217	890.910132	-255.968000	-22.891163	80.465896	-456.452868	-22.842697	80.629686	-56.223673	
1751	8.7550	669.006248	1294.930420	-131.627758	686.889845	1265.529534	-507.691395	689.562838	1376.149850	-319.912937	655.375041	1215.813888	-310.339819	537.370966	1062.645557	-5.279359	693.985012	886.754253	-63.784939	529.258109	1027.044444	-593.654432	669.671158	869.537568	-468.238526	141.013833	1221.560722	-302.100297	299.197850	1194.546291	-481.392939	308.432637	1209.355728	-160.098590	288.455424	1136.433158	-460.545238	324.822508	1159.103264	-189.477456	179.762209	1255.936353	-256.753647	171.637297	1250.744072	-362.776156	251.924480	1118.697174	-112.002056	193.377976	1059.753375	-489.740655	353.398928	1037.364470	-107.564525	427.412736	999.649630	-111.345962	502.747088	952.068803	-125.119119	452.425749	1045.027274	-135.073129	565.825597	867.323384	-148.867064	469.790109	810.164455	-110.117887	402.757003	758.665396	-106.008561	326.845225	711.538120	-108.608143	429.111557	717.354692	-141.061661	218.341288	647.597619	-115.580909	253.430678	625.967420	-196.402494	163.061054	655.565164	-168.653072	333.167190	444.186075	-146.139969	241.442793	504.456742	-79.612346	204.226321	930.222164	-489.946726	246.845029	848.122132	-485.731455	290.788118	870.105733	-490.771864	269.889728	771.298094	-464.657459	302.563872	655.137955	-447.974566	235.852337	561.861347	-472.346479	216.345150	477.746303	-462.502602	195.115627	396.157453	-444.594065	273.205273	467.663420	-440.129270	164.491851	275.368596	-422.288720	0.000000	0.000000	-0.000000	114.875492	262.142448	-379.396758	363.033064	138.026384	-380.568860	258.822585	156.322037	-448.536411	-230.067262	890.882338	-255.964097	-22.896383	80.445315	-456.447790	-22.858316	80.621273	-56.225019	
1752	8.7600	668.905524	1295.448067	-132.346368	686.375429	1266.144512	-508.036494	689.054322	1376.545386	-320.546743	654.968179	1216.250641	-310.761607	538.185932	1063.314542	-5.555334	694.130056	886.813053	-63.820661	529.758881	1027.167073	-593.634398	669.521340	869.359099	-467.920414	140.510705	1221.963351	-302.019599	299.005632	1193.713740	-480.950521	308.190249	1209.720016	-160.324664	287.666962	1136.329175	-460.301136	324.304984	1159.015178	-189.777982	179.261394	1256.331604	-256.742287	170.877421	1251.099510	-362.792070	251.675833	1118.885891	-111.976977	192.334943	1059.759085	-489.527102	352.618790	1036.790468	-107.643766	426.334380	998.372572	-111.513600	501.780516	950.238907	-125.450279	451.510666	1043.381438	-135.362038	563.153859	864.848776	-148.758658	466.428966	808.523050	-110.345707	399.132092	757.373699	-105.990534	322.882496	710.739957	-108.188602	425.485591	715.706543	-140.655874	214.604399	646.896206	-115.504198	249.215289	625.072491	-196.303945	159.533179	655.367897	-168.608647	327.667341	442.570215	-145.979169	236.460171	503.608047	-79.532822	203.265392	930.365970	-489.220155	246.060397	848.497187	-485.566488	289.637376	870.199074	-491.056547	269.026461	771.443796	-464.471684	302.477074	655.464129	-447.299517	236.443520	561.711230	-472.044124	217.635744	477.433982	-462.073296	197.032558	395.690925	-444.168067	274.600645	467.802464	-439.937641	167.526345	274.697011	-421.882855	0.000000	0.000000	-0.000000	118.148962	260.803541	-379.063533	367.870200	140.041182	-380.728328	263.379154	156.896422	-448.511177	-230.055357	890.852999	-255.955737	-23.011898	80.114777	-456.605586	-22.853637	80.613101	-56.215572	
1753	8.7650	668.663542	1296.263167	-133.284891	685.887092	1266.736464	-508.351377	688.583274	1376.913606	-321.164868	654.489967	1216.668523	-311.343596	538.919174	1063.987475	-5.661392	694.243646	886.883803	-63.819566	530.114944	1027.217873	-593.810701	669.362720	869.179614	-467.600047	139.966294	1222.217961	-301.997199	298.821096	1192.922478	-480.581450	307.901268	1209.933170	-160.513674	286.935540	1136.240155	-460.075052	323.783202	1158.801944	-189.966657	178.702161	1256.677024	-256.746307	170.163856	1251.350602	-362.932861	251.367313	1118.985986	-111.989905	191.450879	1059.738216	-489.373721	351.842080	1035.980730	-107.661229	425.214800	997.035624	-111.580727	500.498007	948.305864	-125.660321	450.774241	1041.925083	-135.635300	560.259852	862.090532	-148.097006	463.055207	806.557640	-110.334673	395.587969	755.666272	-105.853570	319.115745	709.479484	-108.071373	421.864024	713.739780	-140.232120	210.744526	645.988590	-115.353806	244.941575	624.081329	-196.209633	155.892461	654.968515	-168.560756	322.607199	441.054457	-145.849847	231.693158	502.701926	-79.398369	202.526679	930.504214	-488.959176	245.497294	848.842313	-485.416592	288.877658	870.329220	-491.290129	268.190704	771.778711	-464.049872	302.759023	655.779639	-446.902736	237.290701	561.668202	-471.712904	218.936037	477.363911	-461.764764	198.914810	395.460704	-443.779385	276.062279	468.047618	-439.710990	170.337558	274.236327	-421.490326	0.000000	0.000000	-0.000000	121.225636	259.647904	-378.744835	372.404318	142.048348	-380.929550	267.607112	157.632023	-448.531328	-230.063904	890.835364	-255.961616	-23.013809	80.091245	-456.612277	-22.853770	80.596732	-56.228710	
1754	8.7700	668.433015	1296.880433	-134.053384	685.310266	1267.274696	-508.769050	687.957733	1377.235926	-321.859508	653.999041	1217.002475	-311.869117	539.570179	1064.771346	-5.693619	694.376337	886.946961	-63.789184	530.392582	1027.227735	-594.004425	669.191221	869.012432	-467.282405	139.365603	1222.428703	-301.941166	298.614724	1191.895658	-480.170336	307.490582	1210.012180	-160.650609	286.275276	1136.063551	-459.969931	323.184630	1158.509715	-190.182364	178.074945	1256.969995	-256.758840	169.407254	1251.603687	-363.005808	251.033057	1119.008232	-111.999608	190.742840	1059.635738	-489.252777	351.002773	1035.239509	-107.624038	423.986063	995.569037	-111.571619	498.840042	946.168071	-125.625915	449.863979	1039.960249	-135.812539	557.300538	859.507495	-147.787996	459.721097	804.425110	-110.190628	392.057457	753.727300	-105.733295	315.438506	707.802353	-107.906540	418.210624	711.655966	-139.902367	206.701822	645.017091	-115.303098	240.623604	623.030101	-196.122592	152.040623	654.302411	-168.468077	317.946962	439.850297	-145.754010	227.273434	501.756229	-79.250672	202.149665	930.594943	-488.835039	245.158329	849.163172	-485.283225	288.481565	870.511000	-491.485680	268.017929	772.034173	-463.836656	303.324547	656.330835	-446.458313	238.286583	561.850125	-471.466899	220.421390	477.391361	-461.460797	200.865529	395.395531	-443.478768	277.582498	468.418141	-439.448958	172.893309	273.953790	-421.127973	0.000000	0.000000	-0.000000	124.065050	258.693344	-378.334292	376.548766	144.070136	-381.091978	271.426458	158.444597	-448.564992	-230.072183	890.821215	-255.973198	-23.001599	80.066815	-456.625905	-22.866376	80.573613	-56.236123	
1755	8.7750	668.043652	1297.754888	-134.963411	684.689399	1267.727638	-509.055530	687.342162	1377.612429	-322.543110	653.474022	1217.480842	-312.381142	540.333667	1065.461482	-5.838916	694.529379	887.027451	-63.701639	530.631499	1027.115755	-594.186942	668.999307	868.858740	-466.990162	138.650078	1222.700628	-301.818757	298.319821	1190.940564	-479.815407	307.056163	1209.960663	-160.689059	285.552471	1135.927042	-459.795269	322.578212	1158.176752	-190.203167	177.402738	1257.211528	-256.763460	168.697147	1251.767799	-363.140685	250.660240	1118.928260	-111.988604	190.268560	1059.525951	-489.219382	350.185340	1034.395717	-107.513874	422.855408	994.045866	-111.486485	497.182142	943.992457	-125.633909	448.946424	1038.186530	-135.854631	554.335021	856.855157	-147.316274	456.358312	802.062421	-109.918769	388.535849	751.675651	-105.416365	311.462583	706.101574	-107.547181	414.553313	709.361338	-139.655292	202.603013	643.925547	-115.162059	236.275437	621.955275	-196.045810	147.967329	653.460265	-168.326225	313.778273	438.947814	-145.650788	223.122533	500.870917	-79.145303	202.068399	930.664210	-488.829489	245.040717	849.465008	-485.166830	288.561423	870.755442	-491.530625	268.332560	772.251622	-463.679528	304.160205	656.852325	-446.005679	239.412830	562.106222	-471.136562	221.947460	477.548332	-461.172308	202.740636	395.453743	-443.200295	279.123709	468.878485	-439.138477	175.313064	273.749960	-420.663489	0.000000	0.000000	-0.000000	126.611391	258.041629	-377.883535	380.266906	145.942710	-381.316479	274.849773	159.219142	-448.503530	-230.080000	890.809371	-255.979912	-23.012936	80.069792	-456.624119	-22.854199	80.560286	-56.224840	
